Coordinates
version=1
nRows=37
nColumns=38
inDegrees=no

Units are S.I. units (second, meters, Newtons, ...)
If the header above contains a line with 'inDegrees', this indicates whether rotational values are in degrees (yes) or radians (no).

endheader
time	pelvis_tilt	pelvis_list	pelvis_rotation	pelvis_tx	pelvis_ty	pelvis_tz	hip_flexion_r	hip_adduction_r	hip_rotation_r	knee_angle_r	ankle_angle_r	subtalar_angle_r	mtp_angle_r	hip_flexion_l	hip_adduction_l	hip_rotation_l	knee_angle_l	ankle_angle_l	subtalar_angle_l	mtp_angle_l	lumbar_extension	lumbar_bending	lumbar_rotation	arm_flex_r	arm_add_r	arm_rot_r	elbow_flex_r	pro_sup_r	wrist_flex_r	wrist_dev_r	arm_flex_l	arm_add_l	arm_rot_l	elbow_flex_l	pro_sup_l	wrist_flex_l	wrist_dev_l
60	2.00975	1.54763	-0.296965	0.622257	0.39024	1.0669	0.0862298	-0.0752188	-0.203126	0.299467	-0.305211	0	0	0.00377447	-0.188628	-0.271706	0.20585	-0.28774	0	0	-0.191792	-0.00523134	0.0550952	0.473623	-0.682127	0.530018	1.26051	0.552004	0	0	0.416432	-0.40987	0.231391	1.24998	0.843074	0	0
60.01	2.0502	1.54772	-0.337053	0.62236	0.39022	1.06695	0.0857706	-0.0756477	-0.203081	0.300565	-0.304279	0	0	0.00338761	-0.188494	-0.272013	0.206646	-0.287689	0	0	-0.191865	-0.00521558	0.0557064	0.472997	-0.682923	0.528809	1.26088	0.551149	0	0	0.417635	-0.408959	0.232331	1.24888	0.843063	0	0
60.02	2.06708	1.54796	-0.353904	0.622512	0.390165	1.06692	0.0861546	-0.0760038	-0.202469	0.301814	-0.303237	0	0	0.00348931	-0.188334	-0.272531	0.207219	-0.287659	0	0	-0.191528	-0.00525896	0.0564087	0.472645	-0.683355	0.527446	1.26087	0.549926	0	0	0.418601	-0.408149	0.232927	1.24784	0.843365	0	0
60.03	2.05493	1.54848	-0.342119	0.62272	0.390082	1.06679	0.0875664	-0.0763801	-0.200984	0.303387	-0.302036	0	0	0.00425098	-0.188081	-0.273249	0.207659	-0.287624	0	0	-0.190509	-0.00542835	0.0573209	0.472552	-0.683725	0.526982	1.26069	0.549919	0	0	0.419392	-0.407375	0.233358	1.24665	0.843984	0	0
60.04	2.01837	1.54921	-0.306202	0.622977	0.38997	1.06661	0.0900112	-0.0767492	-0.199088	0.30575	-0.300654	0	0	0.00551329	-0.187756	-0.273922	0.207962	-0.287501	0	0	-0.18918	-0.0058126	0.058342	0.472534	-0.683915	0.526866	1.26049	0.551419	0	0	0.42002	-0.406678	0.233528	1.24564	0.844251	0	0
60.05	1.96291	1.54995	-0.251625	0.623276	0.389819	1.06639	0.0929923	-0.0769537	-0.196368	0.308208	-0.29947	0	0	0.00708012	-0.18752	-0.274675	0.208376	-0.286868	0	0	-0.187945	-0.00621883	0.0593658	0.472531	-0.683746	0.526328	1.26035	0.554937	0	0	0.420462	-0.406306	0.233572	1.24507	0.843843	0	0
60.06	1.88928	1.55057	-0.179128	0.623624	0.389611	1.06615	0.0965655	-0.0769961	-0.19293	0.310905	-0.298908	0	0	0.00894315	-0.187567	-0.275551	0.208961	-0.286438	0	0	-0.18668	-0.00652433	0.0602606	0.473969	-0.684029	0.528219	1.26007	0.552678	0	0	0.420657	-0.406151	0.233248	1.2445	0.843735	0	0
60.07	1.78233	1.55111	-0.0735891	0.624048	0.389337	1.06584	0.101012	-0.0769029	-0.188608	0.313759	-0.297959	0	0	0.0116229	-0.187815	-0.276519	0.210022	-0.285621	0	0	-0.18516	-0.00701814	0.0613305	0.47522	-0.68391	0.529855	1.25978	0.553306	0	0	0.420992	-0.40617	0.232927	1.24386	0.843804	0	0
60.08	1.60346	1.55144	0.103276	0.624593	0.388982	1.06539	0.107619	-0.0768062	-0.182747	0.31785	-0.296324	0	0	0.0159789	-0.188161	-0.277838	0.211626	-0.284828	0	0	-0.182513	-0.00771011	0.0628732	0.476243	-0.683381	0.530882	1.25925	0.554838	0	0	0.421209	-0.406246	0.232451	1.24316	0.84387	0	0
60.09	1.40479	1.55102	0.299839	0.62519	0.388557	1.06491	0.114741	-0.0765898	-0.176788	0.321842	-0.294457	0	0	0.020786	-0.188466	-0.278842	0.213031	-0.284336	0	0	-0.179746	-0.00846582	0.0645732	0.477017	-0.682573	0.530973	1.25869	0.555937	0	0	0.421785	-0.406443	0.232235	1.2423	0.843963	0	0
60.1	1.23551	1.54996	0.467111	0.625777	0.388083	1.06445	0.12146	-0.0763288	-0.171695	0.325573	-0.292872	0	0	0.0250317	-0.188672	-0.279274	0.213772	-0.284009	0	0	-0.177592	-0.00912961	0.066252	0.477896	-0.681768	0.530601	1.25812	0.556052	0	0	0.422772	-0.406597	0.232278	1.24127	0.844048	0	0
60.11	1.02986	1.54766	0.670293	0.62641	0.387554	1.06382	0.130602	-0.0763611	-0.165818	0.331053	-0.289543	0	0	0.0308825	-0.18865	-0.279753	0.214661	-0.283899	0	0	-0.174226	-0.00998028	0.0666597	0.480911	-0.67961	0.53226	1.25623	0.556033	0	0	0.421511	-0.407248	0.229097	1.24179	0.84716	0	0
60.12	1.18064	1.54974	0.521248	0.626138	0.387406	1.06428	0.125597	-0.0770783	-0.172003	0.32979	-0.290962	0	0	0.0262941	-0.18842	-0.279179	0.212816	-0.284845	0	0	-0.180666	-0.00971792	0.0634231	0.485065	-0.679119	0.535454	1.25508	0.557447	0	0	0.421709	-0.407466	0.226658	1.24275	0.848946	0	0
60.13	1.27912	1.55066	0.423762	0.626	0.387176	1.06453	0.123014	-0.0775998	-0.176204	0.329386	-0.291713	0	0	0.0238377	-0.188312	-0.279172	0.211793	-0.28533	0	0	-0.185346	-0.00984086	0.0614587	0.488023	-0.678756	0.537822	1.2542	0.559023	0	0	0.422495	-0.407628	0.22532	1.24315	0.849814	0	0
60.14	1.36906	1.55122	0.334639	0.625894	0.386937	1.06473	0.120969	-0.0780211	-0.180145	0.329212	-0.292345	0	0	0.0217738	-0.188269	-0.279317	0.210883	-0.285668	0	0	-0.189823	-0.00995551	0.0597647	0.490539	-0.678122	0.538912	1.25318	0.559752	0	0	0.423313	-0.407731	0.223935	1.2435	0.85043	0	0
60.15	1.43586	1.55142	0.268435	0.625849	0.386675	1.06486	0.119727	-0.0782596	-0.183415	0.32919	-0.292858	0	0	0.0203424	-0.188352	-0.27945	0.210057	-0.285849	0	0	-0.193871	-0.0100744	0.0583693	0.492819	-0.677251	0.539263	1.25195	0.560269	0	0	0.424141	-0.407731	0.222546	1.24372	0.85141	0	0
60.16	1.46729	1.55127	0.237428	0.625867	0.386351	1.06491	0.119374	-0.0782166	-0.185739	0.328995	-0.293251	0	0	0.0198877	-0.188605	-0.27951	0.209554	-0.285872	0	0	-0.19732	-0.0101983	0.0572614	0.495021	-0.676413	0.539865	1.25077	0.561416	0	0	0.42513	-0.407713	0.221396	1.24379	0.85264	0	0
60.17	1.47342	1.55086	0.231594	0.625924	0.385968	1.06488	0.120014	-0.0779925	-0.187466	0.329475	-0.293487	0	0	0.0202809	-0.189119	-0.279507	0.209521	-0.285772	0	0	-0.200383	-0.010207	0.0563669	0.497218	-0.675503	0.539971	1.24945	0.56252	0	0	0.42635	-0.407638	0.220393	1.24365	0.853458	0	0
60.18	1.45771	1.5503	0.247394	0.626022	0.385548	1.0648	0.121448	-0.0776944	-0.188527	0.33035	-0.293587	0	0	0.0213995	-0.189803	-0.279584	0.20996	-0.285593	0	0	-0.203002	-0.0103291	0.0557948	0.499348	-0.674753	0.540569	1.24827	0.564452	0	0	0.427727	-0.407398	0.219541	1.24331	0.854096	0	0
60.19	1.42071	1.54975	0.284107	0.626199	0.385101	1.06466	0.123593	-0.0774236	-0.188575	0.33141	-0.293541	0	0	0.0230051	-0.190391	-0.279761	0.210494	-0.285313	0	0	-0.205235	-0.0107608	0.0557005	0.501293	-0.674047	0.541507	1.24735	0.566904	0	0	0.42916	-0.407241	0.219017	1.24301	0.854885	0	0
60.2	1.35984	1.54905	0.344239	0.626458	0.38459	1.06444	0.126687	-0.0770573	-0.187427	0.332757	-0.293203	0	0	0.0254295	-0.191028	-0.279982	0.211509	-0.284737	0	0	-0.20716	-0.011252	0.0560312	0.503053	-0.673087	0.541475	1.24644	0.568975	0	0	0.430613	-0.407091	0.218381	1.24276	0.856159	0	0
60.21	1.28782	1.54814	0.415199	0.626767	0.384038	1.06417	0.130788	-0.0766926	-0.185409	0.335182	-0.292484	0	0	0.0284446	-0.191759	-0.280235	0.212994	-0.283949	0	0	-0.208931	-0.0117592	0.0567054	0.504648	-0.671872	0.540434	1.24533	0.570121	0	0	0.432124	-0.406873	0.217658	1.24245	0.857284	0	0
60.22	1.20032	1.54678	0.501337	0.627136	0.383431	1.0638	0.1361	-0.0761908	-0.182506	0.338542	-0.291463	0	0	0.0324704	-0.192743	-0.280819	0.215327	-0.282869	0	0	-0.210304	-0.0122843	0.0576536	0.506111	-0.670425	0.53894	1.24413	0.572009	0	0	0.43349	-0.406611	0.216591	1.24232	0.858891	0	0
60.23	1.10176	1.54496	0.598161	0.62759	0.382775	1.06333	0.142696	-0.0756766	-0.178803	0.342944	-0.290676	0	0	0.0374144	-0.19385	-0.281766	0.218165	-0.281829	0	0	-0.21132	-0.0131369	0.058779	0.507793	-0.668919	0.538288	1.24303	0.575601	0	0	0.434688	-0.40651	0.215071	1.24264	0.860791	0	0
60.24	1.05068	1.54359	0.647771	0.628042	0.382075	1.06298	0.147654	-0.0750512	-0.175915	0.346198	-0.290776	0	0	0.0409562	-0.194913	-0.281567	0.220142	-0.281313	0	0	-0.213949	-0.013762	0.0596438	0.510125	-0.667637	0.537698	1.24215	0.577147	0	0	0.436334	-0.406562	0.213717	1.24307	0.862022	0	0
60.25	1.1112	1.544	0.588601	0.627783	0.381702	1.0631	0.146888	-0.0754633	-0.180491	0.347523	-0.29129	0	0	0.0407783	-0.195723	-0.281252	0.221574	-0.280916	0	0	-0.219911	-0.0132786	0.05797	0.512102	-0.666793	0.536425	1.24106	0.578284	0	0	0.4377	-0.405902	0.21232	1.24343	0.863302	0	0
60.26	1.15023	1.54383	0.550894	0.627537	0.381306	1.06313	0.147249	-0.0758215	-0.184626	0.34931	-0.29158	0	0	0.0417979	-0.196768	-0.281107	0.223623	-0.280286	0	0	-0.225096	-0.0127212	0.0564913	0.513972	-0.666045	0.535553	1.2399	0.580481	0	0	0.438978	-0.404979	0.210886	1.24361	0.864622	0	0
60.27	1.16673	1.5434	0.535455	0.627383	0.380868	1.06307	0.148818	-0.076222	-0.188016	0.351921	-0.291611	0	0	0.0437774	-0.197853	-0.280968	0.22619	-0.27972	0	0	-0.229733	-0.012513	0.0553391	0.515837	-0.665165	0.53507	1.23855	0.583374	0	0	0.44048	-0.404191	0.209737	1.24362	0.865855	0	0
60.28	1.16374	1.54274	0.539294	0.627307	0.380371	1.06295	0.151465	-0.0765948	-0.190424	0.355154	-0.29147	0	0	0.0466339	-0.199033	-0.280755	0.229202	-0.279215	0	0	-0.234033	-0.0125699	0.0544756	0.517603	-0.66416	0.534576	1.23722	0.58643	0	0	0.442161	-0.403446	0.208699	1.24364	0.866886	0	0
60.29	1.14796	1.54186	0.555792	0.627294	0.37983	1.06277	0.154968	-0.0769733	-0.192197	0.358949	-0.29119	0	0	0.050118	-0.200314	-0.280687	0.232484	-0.278697	0	0	-0.238153	-0.0127696	0.0539002	0.519068	-0.66308	0.533636	1.23599	0.589018	0	0	0.444065	-0.402619	0.20768	1.24352	0.867807	0	0
60.3	1.11577	1.54075	0.588714	0.627328	0.379218	1.06252	0.15996	-0.077642	-0.193586	0.364349	-0.290577	0	0	0.0547357	-0.201794	-0.281149	0.236804	-0.277715	0	0	-0.242199	-0.0129941	0.0532809	0.520126	-0.661658	0.530775	1.23493	0.591455	0	0	0.445914	-0.401883	0.206371	1.2437	0.869303	0	0
60.31	1.08014	1.53943	0.625123	0.627367	0.378519	1.06221	0.165833	-0.0783404	-0.194443	0.370688	-0.289923	0	0	0.0599096	-0.203378	-0.281597	0.241617	-0.276229	0	0	-0.246373	-0.0131232	0.0526097	0.521441	-0.660233	0.528043	1.23391	0.594495	0	0	0.448001	-0.40124	0.205166	1.24389	0.87035	0	0
60.32	1.03648	1.5378	0.669219	0.627431	0.377785	1.0618	0.172667	-0.0791321	-0.194688	0.377547	-0.289111	0	0	0.06558	-0.204923	-0.282003	0.246657	-0.274243	0	0	-0.250294	-0.0132483	0.0521843	0.522919	-0.658866	0.525797	1.23308	0.598461	0	0	0.450055	-0.400625	0.203958	1.24408	0.871248	0	0
60.33	0.979134	1.53581	0.726658	0.627553	0.376997	1.06127	0.180573	-0.0800426	-0.194253	0.384724	-0.28815	0	0	0.0721356	-0.206301	-0.282361	0.251904	-0.27247	0	0	-0.253636	-0.0137801	0.0520258	0.524639	-0.657448	0.524239	1.23202	0.602512	0	0	0.452228	-0.399968	0.202815	1.24419	0.871922	0	0
60.34	0.910023	1.53338	0.795504	0.627778	0.376135	1.06064	0.189715	-0.0810772	-0.192817	0.392515	-0.286975	0	0	0.0797313	-0.207627	-0.283124	0.25765	-0.270641	0	0	-0.256673	-0.0149142	0.0520819	0.526198	-0.655795	0.522264	1.2312	0.605811	0	0	0.45452	-0.399439	0.201438	1.24469	0.872469	0	0
60.35	0.845695	1.53077	0.859411	0.628072	0.375181	1.05998	0.199243	-0.0821207	-0.190778	0.400501	-0.285984	0	0	0.087698	-0.209019	-0.283961	0.26375	-0.26877	0	0	-0.260176	-0.0159839	0.0522162	0.527753	-0.653939	0.518973	1.23081	0.606822	0	0	0.45704	-0.399262	0.200118	1.24533	0.873527	0	0
60.36	0.805717	1.52842	0.89955	0.628282	0.374053	1.05935	0.208123	-0.0830918	-0.189315	0.408605	-0.285169	0	0	0.0956205	-0.210723	-0.283542	0.270675	-0.26659	0	0	-0.265301	-0.016465	0.0516688	0.530305	-0.652241	0.516068	1.23078	0.608059	0	0	0.460046	-0.399305	0.198788	1.24635	0.875093	0	0
